<svg xmlns="http://www.w3.org/2000/svg" width="20" height="20">
    <path fill-rule="evenodd" fill="#FFF" d="M16.375 10.462c.032-.255.056-.51.056-.781a6.17 6.17 0 0 0-.056-.78l1.68-1.314a.402.402 0 0 0 .096-.51l-1.593-2.755a.4.4 0 0 0-.486-.176l-1.982.797a5.795 5.795 0 0 0-1.346-.781l-.303-2.11a.389.389 0 0 0-.39-.335H8.866a.389.389 0 0 0-.39.335l-.303 2.11c-.486.199-.932.47-1.346.781l-1.982-.797a.388.388 0 0 0-.486.176L2.766 7.077a.393.393 0 0 0 .096.51l1.68 1.314a6.28 6.28 0 0 0-.056.78c0 .263.024.526.056.781l-1.68 1.314a.4.4 0 0 0-.096.509l1.593 2.756c.095.175.31.239.486.175l1.982-.796c.414.318.86.581 1.346.78l.303 2.111a.388.388 0 0 0 .39.334h3.185a.388.388 0 0 0 .39-.334l.303-2.111a6.13 6.13 0 0 0 1.346-.78l1.982.796c.184.072.391 0 .486-.175l1.593-2.756a.4.4 0 0 0-.096-.509l-1.68-1.314zm-5.916 2.007a2.792 2.792 0 0 1-2.788-2.788 2.79 2.79 0 0 1 2.788-2.787 2.79 2.79 0 0 1 2.787 2.787 2.791 2.791 0 0 1-2.787 2.788z"/>
</svg>
