<svg xmlns="http://www.w3.org/2000/svg" width="17" height="17">
    <path fill-rule="evenodd" fill="#FFF" d="M0 2V0h17v2H0zm3 6H0V6h3v2zm0 6H0v-2h3v2zm2.033-5.832 1.212-2.096a.294.294 0 0 1 .369-.133l1.508.606a4.6 4.6 0 0 1 1.024-.594l.23-1.605a.295.295 0 0 1 .297-.255h2.422c.152 0 .279.109.297.255l.23 1.605c.37.151.709.351 1.024.594l1.508-.606a.303.303 0 0 1 .369.133l1.212 2.096a.307.307 0 0 1-.073.388l-1.278.999c.024.194.042.388.042.594 0 .206-.018.399-.042.593l1.278 1c.115.09.145.254.073.387l-1.212 2.096a.294.294 0 0 1-.369.133l-1.508-.605a4.635 4.635 0 0 1-1.024.593l-.23 1.605a.295.295 0 0 1-.297.255H9.673a.295.295 0 0 1-.297-.255l-.23-1.605a4.41 4.41 0 0 1-1.024-.593l-1.508.605a.303.303 0 0 1-.369-.133l-1.212-2.096a.306.306 0 0 1 .073-.387l1.278-1a4.854 4.854 0 0 1-.042-.593c0-.2.018-.4.042-.594l-1.278-.999a.3.3 0 0 1-.073-.388zm5.851 4.101c1.169 0 2.12-.951 2.12-2.12s-.951-2.12-2.12-2.12-2.12.951-2.12 2.12.951 2.12 2.12 2.12z"/>
</svg>
